<?xml version="1.0" standalone="no"?>
<!DOCTYPE svg PUBLIC "-//W3C//DTD SVG 20010904//EN"
 "http://www.w3.org/TR/2001/REC-SVG-20010904/DTD/svg10.dtd">
<svg version="1.0" xmlns="http://www.w3.org/2000/svg"
 width="436.000000pt" height="436.000000pt" viewBox="0 0 436.000000 436.000000"
 preserveAspectRatio="xMidYMid meet">
<metadata>
Created by potrace 1.11, written by Peter Selinger 2001-2013
</metadata>
<g transform="translate(0.000000,436.000000) scale(0.100000,-0.100000)"
fill="#000000" stroke="none">
<path d="M460 2260 l0 -1150 285 0 285 0 0 545 0 544 70 50 c80 56 147 76 221
68 88 -11 134 -53 153 -142 4 -17 8 -263 9 -548 l2 -517 283 0 283 0 -3 603
c-4 584 -5 604 -26 682 -62 226 -178 352 -359 390 -201 43 -417 -12 -603 -154
l-65 -49 -3 414 -2 414 -265 0 -265 0 0 -1150z"/>
<path d="M3033 2750 c-292 -28 -519 -154 -606 -337 -30 -64 -32 -75 -32 -178
0 -94 3 -116 22 -151 55 -102 184 -207 335 -270 44 -19 170 -61 280 -94 291
-88 357 -127 332 -197 -14 -41 -62 -63 -163 -74 -179 -22 -366 20 -567 125
l-102 53 -121 -170 c-84 -118 -118 -174 -111 -182 17 -21 202 -112 303 -149
206 -77 396 -104 613 -86 262 21 446 90 570 214 78 79 115 145 134 244 45 228
-93 407 -397 516 -40 14 -146 46 -237 71 -203 55 -267 79 -307 112 -25 21 -30
32 -27 61 4 49 36 69 133 83 146 20 286 -8 463 -91 61 -29 109 -47 114 -42 5
5 61 79 123 163 105 140 113 155 97 167 -27 21 -219 116 -297 147 -144 57
-363 83 -552 65z"/>
</g>
</svg>
