<?xml version="1.0" encoding="UTF-8" standalone="no"?>
<!-- Created with Inkscape (http://www.inkscape.org/) -->

<svg
   xmlns:dc="http://purl.org/dc/elements/1.1/"
   xmlns:cc="http://creativecommons.org/ns#"
   xmlns:rdf="http://www.w3.org/1999/02/22-rdf-syntax-ns#"
   xmlns:svg="http://www.w3.org/2000/svg"
   xmlns="http://www.w3.org/2000/svg"
   xmlns:sodipodi="http://sodipodi.sourceforge.net/DTD/sodipodi-0.dtd"
   xmlns:inkscape="http://www.inkscape.org/namespaces/inkscape"
   width="468"
   height="60"
   viewBox="0 0 123.825 15.875"
   version="1.1"
   id="svg8"
   inkscape:version="0.92.1 r"
   sodipodi:docname="logo.svg">
  <defs
     id="defs2" />
  <sodipodi:namedview
     id="base"
     pagecolor="#ffffff"
     bordercolor="#666666"
     borderopacity="1.0"
     inkscape:pageopacity="0.0"
     inkscape:pageshadow="2"
     inkscape:zoom="2.3888889"
     inkscape:cx="229.39535"
     inkscape:cy="28.972854"
     inkscape:document-units="mm"
     inkscape:current-layer="flowRoot4485"
     showgrid="false"
     units="px"
     inkscape:snap-bbox="false"
     inkscape:snap-object-midpoints="false"
     showguides="true"
     inkscape:guide-bbox="true"
     inkscape:window-width="1920"
     inkscape:window-height="1031"
     inkscape:window-x="0"
     inkscape:window-y="26"
     inkscape:window-maximized="1"
     inkscape:snap-midpoints="false"
     inkscape:snap-to-guides="false">
    <sodipodi:guide
       position="60.029651,36.549419"
       orientation="1,0"
       id="guide4497"
       inkscape:locked="false" />
    <sodipodi:guide
       position="31.343895,7.9744186"
       orientation="0,1"
       id="guide4499"
       inkscape:locked="false" />
  </sodipodi:namedview>
  <metadata
     id="metadata5">
    <rdf:RDF>
      <cc:Work
         rdf:about="">
        <dc:format>image/svg+xml</dc:format>
        <dc:type
           rdf:resource="http://purl.org/dc/dcmitype/StillImage" />
        <dc:title></dc:title>
      </cc:Work>
    </rdf:RDF>
  </metadata>
  <g
     inkscape:label="Layer 1"
     inkscape:groupmode="layer"
     id="layer1"
     transform="translate(0,-281.125)">
    <g
       aria-label="hack_state"
       transform="matrix(0.4644012,0,0,0.4176611,17.131688,278.92294)"
       style="font-style:normal;font-variant:normal;font-weight:normal;font-stretch:normal;font-size:40px;line-height:1.25;font-family:SquareFont;-inkscape-font-specification:'SquareFont, Normal';font-variant-ligatures:normal;font-variant-caps:normal;font-variant-numeric:normal;text-align:start;letter-spacing:0px;word-spacing:0px;writing-mode:lr-tb;text-anchor:start;fill:#000000;fill-opacity:1;stroke:none"
       id="flowRoot4485">
      <path
         d="M 2.5999779,35.496916 H 8.479928 V 22.097029 c 1.2799892,-1.239989 2.199981,-1.919983 3.679969,-1.919983 1.679986,0 2.439979,0.879992 2.439979,3.759968 v 11.559902 h 5.87995 V 23.17702 c 0,-4.959958 -1.839984,-7.999932 -6.159948,-7.999932 -2.679977,0 -4.6399602,1.399988 -6.1199476,2.719977 L 8.479928,14.337095 V 7.4571537 H 2.5999779 Z"
         style="font-style:normal;font-variant:normal;font-weight:bold;font-stretch:normal;font-size:39.99966049px;font-family:'Source Sans Pro';-inkscape-font-specification:'Source Sans Pro, Bold';font-variant-ligatures:normal;font-variant-caps:normal;font-variant-numeric:normal;font-feature-settings:normal;text-align:start;writing-mode:lr-tb;text-anchor:start;fill:#660000;fill-opacity:1;stroke:none;stroke-width:0.99906558;stroke-miterlimit:4;stroke-dasharray:none;stroke-opacity:1"
         id="path4501"
         inkscape:connector-curvature="0" />
      <path
         d="m 30.412241,35.976912 c 2.239981,0 4.079965,-1.039992 5.759951,-2.519979 h 0.159999 l 0.399996,2.039983 h 4.79996 V 24.137012 c 0,-6.079948 -2.799977,-8.959924 -7.879934,-8.959924 -3.119973,0 -5.959949,1.079991 -8.479928,2.599978 l 2.119982,3.879967 c 1.919984,-1.11999 3.55997,-1.799985 5.239956,-1.799985 2.159982,0 2.999974,1.119991 3.119973,2.879976 -7.839933,0.799993 -11.159905,3.079974 -11.159905,7.239939 0,3.359971 2.279981,5.999949 5.91995,5.999949 z m 1.999983,-4.559962 c -1.399988,0 -2.279981,-0.599995 -2.279981,-1.879984 0,-1.519987 1.359989,-2.719977 5.519953,-3.279972 v 3.479971 c -1.039991,1.039991 -1.919983,1.679985 -3.239972,1.679985 z"
         style="font-style:normal;font-variant:normal;font-weight:bold;font-stretch:normal;font-size:39.99966049px;font-family:'Source Sans Pro';-inkscape-font-specification:'Source Sans Pro, Bold';font-variant-ligatures:normal;font-variant-caps:normal;font-variant-numeric:normal;font-feature-settings:normal;text-align:start;writing-mode:lr-tb;text-anchor:start;fill:#660000;fill-opacity:1;stroke:none;stroke-width:0.99906558;stroke-miterlimit:4;stroke-dasharray:none;stroke-opacity:1"
         id="path4503"
         inkscape:connector-curvature="0" />
      <path
         d="m 55.145781,35.976912 c 2.159981,0 4.599961,-0.639995 6.559944,-2.35998 l -2.31998,-3.839968 c -1.039991,0.799993 -2.279981,1.439988 -3.55997,1.439988 -2.559978,0 -4.439962,-2.199981 -4.439962,-5.639952 0,-3.439971 1.799984,-5.639952 4.63996,-5.639952 0.919992,0 1.719986,0.359997 2.679978,1.15999 l 2.759976,-3.799968 c -1.479987,-1.239989 -3.359971,-2.119982 -5.799951,-2.119982 -5.479953,0 -10.319912,3.799968 -10.319912,10.399912 0,6.599944 4.279964,10.399912 9.799917,10.399912 z"
         style="font-style:normal;font-variant:normal;font-weight:bold;font-stretch:normal;font-size:39.99966049px;font-family:'Source Sans Pro';-inkscape-font-specification:'Source Sans Pro, Bold';font-variant-ligatures:normal;font-variant-caps:normal;font-variant-numeric:normal;font-feature-settings:normal;text-align:start;writing-mode:lr-tb;text-anchor:start;fill:#660000;fill-opacity:1;stroke:none;stroke-width:0.99906558;stroke-miterlimit:4;stroke-dasharray:none;stroke-opacity:1"
         id="path4505"
         inkscape:connector-curvature="0" />
      <path
         d="m 65.177569,35.496916 h 5.719951 v -4.879959 l 2.519979,-2.839976 4.479962,7.719935 h 6.359946 L 76.77747,23.817015 83.737411,15.657084 h -6.399945 l -6.279947,7.879933 H 70.89752 V 7.4571537 h -5.719951 z"
         style="font-style:normal;font-variant:normal;font-weight:bold;font-stretch:normal;font-size:39.99966049px;font-family:'Source Sans Pro';-inkscape-font-specification:'Source Sans Pro, Bold';font-variant-ligatures:normal;font-variant-caps:normal;font-variant-numeric:normal;font-feature-settings:normal;text-align:start;writing-mode:lr-tb;text-anchor:start;fill:#660000;fill-opacity:1;stroke:none;stroke-width:0.99906558;stroke-miterlimit:4;stroke-dasharray:none;stroke-opacity:1"
         id="path4507"
         inkscape:connector-curvature="0" />
      <path
         d="M 85.010529,41.096868 H 104.05037 V 37.776896 H 85.010529 Z"
         style="font-style:normal;font-variant:normal;font-weight:bold;font-stretch:normal;font-size:39.99966049px;font-family:'Source Sans Pro';-inkscape-font-specification:'Source Sans Pro, Bold';font-variant-ligatures:normal;font-variant-caps:normal;font-variant-numeric:normal;font-feature-settings:normal;text-align:start;writing-mode:lr-tb;text-anchor:start;fill:#660000;fill-opacity:1;stroke:none;stroke-width:0.99906558;stroke-miterlimit:4;stroke-dasharray:none;stroke-opacity:1"
         id="path4509"
         inkscape:connector-curvature="0" />
      <path
         d="m 112.97029,35.976912 c 5.31996,0 8.15993,-2.799977 8.15993,-6.399946 0,-3.639969 -2.83997,-5.039957 -5.35995,-5.959949 -2.03998,-0.759994 -3.87997,-1.23999 -3.87997,-2.519979 0,-0.999992 0.72,-1.559987 2.23998,-1.559987 1.39999,0 2.75998,0.639995 4.19997,1.679986 l 2.63998,-3.51997 c -1.71999,-1.279989 -3.95997,-2.519979 -6.99995,-2.519979 -4.59996,0 -7.59993,2.519979 -7.59993,6.199948 0,3.279972 2.83998,4.919958 5.23995,5.83995 2.03999,0.799993 4.03997,1.399988 4.03997,2.719977 0,1.039991 -0.75999,1.679986 -2.51998,1.679986 -1.67998,0 -3.31997,-0.719994 -5.11995,-2.079983 l -2.63998,3.679969 c 1.99998,1.639986 4.99996,2.759977 7.59993,2.759977 z"
         style="font-style:normal;font-variant:normal;font-weight:bold;font-stretch:normal;font-size:39.99966049px;font-family:'Source Sans Pro';-inkscape-font-specification:'Source Sans Pro, Bold';font-variant-ligatures:normal;font-variant-caps:normal;font-variant-numeric:normal;font-feature-settings:normal;text-align:start;writing-mode:lr-tb;text-anchor:start;fill:#000000;fill-opacity:1"
         id="path4511"
         inkscape:connector-curvature="0" />
      <path
         d="m 131.72326,35.976912 c 1.91998,0 3.35997,-0.399997 4.39996,-0.719994 l -0.91999,-4.279964 c -0.52,0.199998 -1.23999,0.399997 -1.87999,0.399997 -1.55998,0 -2.55997,-0.919993 -2.55997,-3.159974 v -7.959932 h 4.75996 v -4.599961 h -4.75996 v -5.279955 h -4.87996 l -0.68,5.279955 -3.03997,0.239998 v 4.359963 h 2.71998 v 8.039932 c 0,4.599961 1.91998,7.679935 6.83994,7.679935 z"
         style="font-style:normal;font-variant:normal;font-weight:bold;font-stretch:normal;font-size:39.99966049px;font-family:'Source Sans Pro';-inkscape-font-specification:'Source Sans Pro, Bold';font-variant-ligatures:normal;font-variant-caps:normal;font-variant-numeric:normal;font-feature-settings:normal;text-align:start;writing-mode:lr-tb;text-anchor:start;fill:#000000;fill-opacity:1"
         id="path4513"
         inkscape:connector-curvature="0" />
      <path
         d="m 143.6144,35.976912 c 2.23998,0 4.07997,-1.039992 5.75995,-2.519979 h 0.16 l 0.4,2.039983 h 4.79996 V 24.137012 c 0,-6.079948 -2.79998,-8.959924 -7.87994,-8.959924 -3.11997,0 -5.95995,1.079991 -8.47992,2.599978 l 2.11998,3.879967 c 1.91998,-1.11999 3.55997,-1.799985 5.23995,-1.799985 2.15998,0 2.99998,1.119991 3.11998,2.879976 -7.83994,0.799993 -11.15991,3.079974 -11.15991,7.239939 0,3.359971 2.27998,5.999949 5.91995,5.999949 z m 1.99998,-4.559962 c -1.39998,0 -2.27998,-0.599995 -2.27998,-1.879984 0,-1.519987 1.35999,-2.719977 5.51996,-3.279972 v 3.479971 c -1.03999,1.039991 -1.91999,1.679985 -3.23998,1.679985 z"
         style="font-style:normal;font-variant:normal;font-weight:bold;font-stretch:normal;font-size:39.99966049px;font-family:'Source Sans Pro';-inkscape-font-specification:'Source Sans Pro, Bold';font-variant-ligatures:normal;font-variant-caps:normal;font-variant-numeric:normal;font-feature-settings:normal;text-align:start;writing-mode:lr-tb;text-anchor:start;fill:#000000;fill-opacity:1"
         id="path4515"
         inkscape:connector-curvature="0" />
      <path
         d="m 166.64484,35.976912 c 1.91998,0 3.35997,-0.399997 4.39996,-0.719994 l -0.91999,-4.279964 c -0.52,0.199998 -1.23999,0.399997 -1.87999,0.399997 -1.55998,0 -2.55998,-0.919993 -2.55998,-3.159974 v -7.959932 h 4.75996 v -4.599961 h -4.75996 v -5.279955 h -4.87995 l -0.68,5.279955 -3.03997,0.239998 v 4.359963 h 2.71997 v 8.039932 c 0,4.599961 1.91999,7.679935 6.83995,7.679935 z"
         style="font-style:normal;font-variant:normal;font-weight:bold;font-stretch:normal;font-size:39.99966049px;font-family:'Source Sans Pro';-inkscape-font-specification:'Source Sans Pro, Bold';font-variant-ligatures:normal;font-variant-caps:normal;font-variant-numeric:normal;font-feature-settings:normal;text-align:start;writing-mode:lr-tb;text-anchor:start;fill:#000000;fill-opacity:1"
         id="path4517"
         inkscape:connector-curvature="0" />
      <path
         d="m 182.49408,35.976912 c 2.35998,0 4.99996,-0.839993 7.03994,-2.239981 l -1.95999,-3.55997 c -1.43998,0.879992 -2.79997,1.319989 -4.27996,1.319989 -2.63998,0 -4.63996,-1.319989 -5.15996,-4.199965 h 11.8799 c 0.12,-0.479996 0.24,-1.559986 0.24,-2.599978 0,-5.399954 -2.79997,-9.519919 -8.43993,-9.519919 -4.75996,0 -9.35992,3.959967 -9.35992,10.399912 0,6.559944 4.35997,10.399912 10.03992,10.399912 z m -4.39996,-12.559894 c 0.39999,-2.519978 1.99998,-3.759968 3.83996,-3.759968 2.35998,0 3.31997,1.559987 3.31997,3.759968 z"
         style="font-style:normal;font-variant:normal;font-weight:bold;font-stretch:normal;font-size:39.99966049px;font-family:'Source Sans Pro';-inkscape-font-specification:'Source Sans Pro, Bold';font-variant-ligatures:normal;font-variant-caps:normal;font-variant-numeric:normal;font-feature-settings:normal;text-align:start;writing-mode:lr-tb;text-anchor:start;fill:#000000;fill-opacity:1"
         id="path4519"
         inkscape:connector-curvature="0" />
    </g>
    <text
       xml:space="preserve"
       style="font-style:normal;font-variant:normal;font-weight:normal;font-stretch:normal;font-size:10.58333302px;line-height:1.25;font-family:SquareFont;-inkscape-font-specification:'SquareFont, Normal';font-variant-ligatures:normal;font-variant-caps:normal;font-variant-numeric:normal;text-align:start;letter-spacing:0px;word-spacing:0px;writing-mode:lr-tb;text-anchor:start;fill:#000000;fill-opacity:1;stroke:none;stroke-width:0.26458332"
       x="66.010468"
       y="292.68051"
       id="text4495"><tspan
         sodipodi:role="line"
         id="tspan4493"
         x="66.010468"
         y="302.23364"
         style="stroke-width:0.26458332" /></text>
  </g>
</svg>
